<?xml version="1.0" encoding="UTF-8" standalone="no"?>
<svg width="24px" height="21px" viewBox="0 0 24 21" version="1.1" xmlns="http://www.w3.org/2000/svg" xmlns:xlink="http://www.w3.org/1999/xlink">
    <!-- Generator: Sketch 41.2 (35397) - http://www.bohemiancoding.com/sketch -->
    <title>Catalog Master Icon</title>
    <desc>Created with Sketch.</desc>
    <defs></defs>
    <g id="Components" stroke="none" stroke-width="1" fill="none" fill-rule="evenodd" stroke-linejoin="round">
        <g id="Atoms" transform="translate(-459.000000, -3474.000000)" stroke="#43484D" stroke-width="2">
            <g id="Catalog-Master-Icon" transform="translate(460.000000, 3475.000000)">
                <path d="M11,17.5 L11,2.5" id="Stroke-450"></path>
                <path d="M0,16.5 L0,0.74 C0,0.47 0.4735,0.5 0.7495,0.5 L7.2495,0.5 C8.768,0.5 10.402,1.358 11.125,2.559" id="Stroke-451" stroke-linecap="round"></path>
                <path d="M22,16.5 L22,0.74 C22,0.47 22.026,0.5 21.7495,0.5 L15.2495,0.5 C13.7285,0.5 11.846,1.3515 11.125,2.558" id="Stroke-452" stroke-linecap="round"></path>
                <path d="M0.5,17 L7.468,17 C8.933,17 10.4765,17.669 11.25,18.69" id="Stroke-453" stroke-linecap="round"></path>
                <path d="M22,17 L15.032,17 C13.567,17 12.0235,17.669 11.25,18.69" id="Stroke-454" stroke-linecap="round"></path>
            </g>
        </g>
    </g>
</svg>